# xmcd
#
# Track frame offsets:
#	150
#	14474
#	37544
#	53724
#	68019
#	84009
#	92718
#	114029
#	134261
#	151582
#	168540
#	183892
#
# Disc length: 2695 seconds
#
# Revision: 0
# Processed by: cddbd v1.5.2PL0 Copyright (c) Steve Scherf et al.
# Submitted via: dBpowerAMP V4.0
#
DISCID=790a850c
DTITLE=World's Greatest Fishing Band - Papa Was a Fishin' Man - Fly Fishing
DYEAR=1900
DGENRE=
TTITLE0=She Can Turn Texan
TTITLE1=Tellin' Lies and Tyin' Flies
TTITLE2=Keep Him Company
TTITLE3=Under an Old Man's Gaze
TTITLE4=Gather Them Up
TTITLE5=The Place Nobody Knows
TTITLE6=Autumn Bloom
TTITLE7=City Mind Country Heart
TTITLE8=Before the First Bell Rings
TTITLE9=A Soldier's Wish
TTITLE10=Fishin' with Bobby Bare
TTITLE11=Stay with the River
EXTD=
EXTT0=
EXTT1=
EXTT2=
EXTT3=
EXTT4=
EXTT5=
EXTT6=
EXTT7=
EXTT8=
EXTT9=
EXTT10=
EXTT11=
PLAYORDER=
